<mxfile host="Electron" agent="Mozilla/5.0 (Windows NT 10.0; Win64; x64) AppleWebKit/537.36 (KHTML, like Gecko) draw.io/28.0.6 Chrome/138.0.7204.100 Electron/37.2.3 Safari/537.36" version="28.0.6">
  <diagram name="Page-1" id="k7A0XMTGdnVvGrv0n0TM">
    <mxGraphModel dx="1426" dy="841" grid="1" gridSize="10" guides="1" tooltips="1" connect="1" arrows="1" fold="1" page="1" pageScale="1" pageWidth="827" pageHeight="1169" math="0" shadow="0">
      <root>
        <mxCell id="0" />
        <mxCell id="1" parent="0" />
        <mxCell id="TA6JC56tNwYO1op2Rau3-44" value="" style="rounded=0;whiteSpace=wrap;html=1;strokeColor=none;" vertex="1" parent="1">
          <mxGeometry x="50" y="30" width="1000" height="590" as="geometry" />
        </mxCell>
        <mxCell id="TA6JC56tNwYO1op2Rau3-17" value="Client" style="rounded=0;whiteSpace=wrap;html=1;verticalAlign=top;fontSize=18;fillColor=#f5f5f5;fontColor=#333333;strokeColor=#666666;" vertex="1" parent="1">
          <mxGeometry x="510" y="320" width="530" height="290" as="geometry" />
        </mxCell>
        <mxCell id="TA6JC56tNwYO1op2Rau3-1" value="Room" style="rounded=0;whiteSpace=wrap;html=1;fontSize=18;verticalAlign=top;fillColor=#dae8fc;strokeColor=#6c8ebf;align=left;" vertex="1" parent="1">
          <mxGeometry x="200" y="40" width="310" height="220" as="geometry" />
        </mxCell>
        <mxCell id="TA6JC56tNwYO1op2Rau3-9" value="" style="group" vertex="1" connectable="0" parent="1">
          <mxGeometry x="255" y="80" width="210" height="160" as="geometry" />
        </mxCell>
        <mxCell id="TA6JC56tNwYO1op2Rau3-3" value="Participant" style="rounded=0;whiteSpace=wrap;html=1;verticalAlign=top;fontSize=18;" vertex="1" parent="TA6JC56tNwYO1op2Rau3-9">
          <mxGeometry width="210" height="160" as="geometry" />
        </mxCell>
        <mxCell id="TA6JC56tNwYO1op2Rau3-5" value="+ ID" style="text;strokeColor=none;fillColor=none;align=left;verticalAlign=top;spacingLeft=4;spacingRight=4;overflow=hidden;rotatable=0;points=[[0,0.5],[1,0.5]];portConstraint=eastwest;whiteSpace=wrap;html=1;fontSize=16;" vertex="1" parent="TA6JC56tNwYO1op2Rau3-9">
          <mxGeometry x="5" y="40" width="200" height="26" as="geometry" />
        </mxCell>
        <mxCell id="TA6JC56tNwYO1op2Rau3-6" value="+ Nickname" style="text;strokeColor=none;fillColor=none;align=left;verticalAlign=top;spacingLeft=4;spacingRight=4;overflow=hidden;rotatable=0;points=[[0,0.5],[1,0.5]];portConstraint=eastwest;whiteSpace=wrap;html=1;fontSize=16;" vertex="1" parent="TA6JC56tNwYO1op2Rau3-9">
          <mxGeometry x="5" y="66" width="200" height="26" as="geometry" />
        </mxCell>
        <mxCell id="TA6JC56tNwYO1op2Rau3-7" value="+ Anchor Color" style="text;strokeColor=none;fillColor=none;align=left;verticalAlign=top;spacingLeft=4;spacingRight=4;overflow=hidden;rotatable=0;points=[[0,0.5],[1,0.5]];portConstraint=eastwest;whiteSpace=wrap;html=1;fontSize=16;" vertex="1" parent="TA6JC56tNwYO1op2Rau3-9">
          <mxGeometry x="5" y="92" width="200" height="26" as="geometry" />
        </mxCell>
        <mxCell id="TA6JC56tNwYO1op2Rau3-8" value="+ Current Task" style="text;strokeColor=none;fillColor=none;align=left;verticalAlign=top;spacingLeft=4;spacingRight=4;overflow=hidden;rotatable=0;points=[[0,0.5],[1,0.5]];portConstraint=eastwest;whiteSpace=wrap;html=1;fontSize=16;" vertex="1" parent="TA6JC56tNwYO1op2Rau3-9">
          <mxGeometry x="5" y="118" width="200" height="26" as="geometry" />
        </mxCell>
        <mxCell id="TA6JC56tNwYO1op2Rau3-42" style="edgeStyle=orthogonalEdgeStyle;rounded=0;orthogonalLoop=1;jettySize=auto;html=1;exitX=0.75;exitY=0;exitDx=0;exitDy=0;entryX=0.5;entryY=1;entryDx=0;entryDy=0;" edge="1" parent="1" source="TA6JC56tNwYO1op2Rau3-10" target="TA6JC56tNwYO1op2Rau3-3">
          <mxGeometry relative="1" as="geometry" />
        </mxCell>
        <mxCell id="TA6JC56tNwYO1op2Rau3-43" value="Update / Consult Participant Info" style="edgeLabel;html=1;align=center;verticalAlign=middle;resizable=0;points=[];fontSize=16;" vertex="1" connectable="0" parent="TA6JC56tNwYO1op2Rau3-42">
          <mxGeometry x="-0.0489" y="-1" relative="1" as="geometry">
            <mxPoint x="68" y="19" as="offset" />
          </mxGeometry>
        </mxCell>
        <mxCell id="TA6JC56tNwYO1op2Rau3-10" value="Host" style="rounded=0;whiteSpace=wrap;html=1;verticalAlign=top;fontSize=18;fillColor=#f5f5f5;fontColor=#333333;strokeColor=#666666;" vertex="1" parent="1">
          <mxGeometry x="70" y="320" width="220" height="140" as="geometry" />
        </mxCell>
        <mxCell id="TA6JC56tNwYO1op2Rau3-29" style="edgeStyle=orthogonalEdgeStyle;rounded=0;orthogonalLoop=1;jettySize=auto;html=1;exitX=0.5;exitY=1;exitDx=0;exitDy=0;entryX=0;entryY=0.5;entryDx=0;entryDy=0;" edge="1" parent="1" source="TA6JC56tNwYO1op2Rau3-11" target="TA6JC56tNwYO1op2Rau3-13">
          <mxGeometry relative="1" as="geometry" />
        </mxCell>
        <mxCell id="TA6JC56tNwYO1op2Rau3-30" value="&lt;font style=&quot;font-size: 16px;&quot;&gt;User Anchor State Update&lt;/font&gt;" style="edgeLabel;html=1;align=center;verticalAlign=middle;resizable=0;points=[];" vertex="1" connectable="0" parent="TA6JC56tNwYO1op2Rau3-29">
          <mxGeometry x="-0.1149" y="1" relative="1" as="geometry">
            <mxPoint x="62" y="-19" as="offset" />
          </mxGeometry>
        </mxCell>
        <mxCell id="TA6JC56tNwYO1op2Rau3-33" style="edgeStyle=orthogonalEdgeStyle;rounded=0;orthogonalLoop=1;jettySize=auto;html=1;exitX=0.25;exitY=0;exitDx=0;exitDy=0;entryX=0;entryY=0.5;entryDx=0;entryDy=0;" edge="1" parent="1" source="TA6JC56tNwYO1op2Rau3-11" target="TA6JC56tNwYO1op2Rau3-3">
          <mxGeometry relative="1" as="geometry" />
        </mxCell>
        <mxCell id="TA6JC56tNwYO1op2Rau3-34" value="Connect a&lt;div&gt;Client (ID)&lt;/div&gt;" style="edgeLabel;html=1;align=center;verticalAlign=middle;resizable=0;points=[];fontSize=16;labelBackgroundColor=none;" vertex="1" connectable="0" parent="TA6JC56tNwYO1op2Rau3-33">
          <mxGeometry x="-0.12" relative="1" as="geometry">
            <mxPoint x="-45" y="16" as="offset" />
          </mxGeometry>
        </mxCell>
        <mxCell id="TA6JC56tNwYO1op2Rau3-11" value="Session Manager" style="html=1;dropTarget=0;whiteSpace=wrap;fillColor=#fff2cc;strokeColor=#d6b656;fontSize=18;" vertex="1" parent="1">
          <mxGeometry x="90" y="360" width="180" height="80" as="geometry" />
        </mxCell>
        <mxCell id="TA6JC56tNwYO1op2Rau3-12" value="" style="shape=module;jettyWidth=8;jettyHeight=4;" vertex="1" parent="TA6JC56tNwYO1op2Rau3-11">
          <mxGeometry x="1" width="20" height="20" relative="1" as="geometry">
            <mxPoint x="-27" y="7" as="offset" />
          </mxGeometry>
        </mxCell>
        <mxCell id="TA6JC56tNwYO1op2Rau3-13" value="Tracking Manager" style="html=1;dropTarget=0;whiteSpace=wrap;fillColor=#fff2cc;strokeColor=#d6b656;fontSize=18;" vertex="1" parent="1">
          <mxGeometry x="530" y="500" width="180" height="80" as="geometry" />
        </mxCell>
        <mxCell id="TA6JC56tNwYO1op2Rau3-14" value="" style="shape=module;jettyWidth=8;jettyHeight=4;" vertex="1" parent="TA6JC56tNwYO1op2Rau3-13">
          <mxGeometry x="1" width="20" height="20" relative="1" as="geometry">
            <mxPoint x="-27" y="7" as="offset" />
          </mxGeometry>
        </mxCell>
        <mxCell id="TA6JC56tNwYO1op2Rau3-27" style="edgeStyle=orthogonalEdgeStyle;rounded=0;orthogonalLoop=1;jettySize=auto;html=1;exitX=1;exitY=0.5;exitDx=0;exitDy=0;entryX=0;entryY=0.5;entryDx=0;entryDy=0;" edge="1" parent="1" source="TA6JC56tNwYO1op2Rau3-18" target="TA6JC56tNwYO1op2Rau3-22">
          <mxGeometry relative="1" as="geometry" />
        </mxCell>
        <mxCell id="TA6JC56tNwYO1op2Rau3-28" value="Profile" style="edgeLabel;html=1;align=center;verticalAlign=middle;resizable=0;points=[];fontSize=16;labelBackgroundColor=none;" vertex="1" connectable="0" parent="TA6JC56tNwYO1op2Rau3-27">
          <mxGeometry x="0.1636" y="-4" relative="1" as="geometry">
            <mxPoint x="-14" y="-19" as="offset" />
          </mxGeometry>
        </mxCell>
        <mxCell id="TA6JC56tNwYO1op2Rau3-31" style="edgeStyle=orthogonalEdgeStyle;rounded=0;orthogonalLoop=1;jettySize=auto;html=1;exitX=0.5;exitY=1;exitDx=0;exitDy=0;entryX=0.5;entryY=0;entryDx=0;entryDy=0;" edge="1" parent="1" source="TA6JC56tNwYO1op2Rau3-18" target="TA6JC56tNwYO1op2Rau3-13">
          <mxGeometry relative="1" as="geometry" />
        </mxCell>
        <mxCell id="TA6JC56tNwYO1op2Rau3-32" value="Turn On/Off Nameple or Gaze" style="edgeLabel;html=1;align=center;verticalAlign=middle;resizable=0;points=[];fontSize=16;labelBackgroundColor=none;" vertex="1" connectable="0" parent="TA6JC56tNwYO1op2Rau3-31">
          <mxGeometry x="-0.2667" y="1" relative="1" as="geometry">
            <mxPoint x="109" y="13" as="offset" />
          </mxGeometry>
        </mxCell>
        <mxCell id="TA6JC56tNwYO1op2Rau3-35" style="edgeStyle=orthogonalEdgeStyle;rounded=0;orthogonalLoop=1;jettySize=auto;html=1;exitX=0;exitY=0.25;exitDx=0;exitDy=0;entryX=1;entryY=0.25;entryDx=0;entryDy=0;" edge="1" parent="1" source="TA6JC56tNwYO1op2Rau3-18" target="TA6JC56tNwYO1op2Rau3-11">
          <mxGeometry relative="1" as="geometry" />
        </mxCell>
        <mxCell id="TA6JC56tNwYO1op2Rau3-36" value="Connect to a Room" style="edgeLabel;html=1;align=center;verticalAlign=middle;resizable=0;points=[];fontSize=16;labelBackgroundColor=none;" vertex="1" connectable="0" parent="TA6JC56tNwYO1op2Rau3-35">
          <mxGeometry x="-0.2308" y="-2" relative="1" as="geometry">
            <mxPoint x="-40" y="-8" as="offset" />
          </mxGeometry>
        </mxCell>
        <mxCell id="TA6JC56tNwYO1op2Rau3-37" style="edgeStyle=orthogonalEdgeStyle;rounded=0;orthogonalLoop=1;jettySize=auto;html=1;exitX=0;exitY=0.5;exitDx=0;exitDy=0;entryX=1;entryY=0.5;entryDx=0;entryDy=0;" edge="1" parent="1" source="TA6JC56tNwYO1op2Rau3-18" target="TA6JC56tNwYO1op2Rau3-11">
          <mxGeometry relative="1" as="geometry" />
        </mxCell>
        <mxCell id="TA6JC56tNwYO1op2Rau3-38" value="Update Current Task" style="edgeLabel;html=1;align=center;verticalAlign=middle;resizable=0;points=[];fontSize=16;labelBackgroundColor=none;" vertex="1" connectable="0" parent="TA6JC56tNwYO1op2Rau3-37">
          <mxGeometry x="-0.0615" y="1" relative="1" as="geometry">
            <mxPoint x="-18" y="-11" as="offset" />
          </mxGeometry>
        </mxCell>
        <mxCell id="TA6JC56tNwYO1op2Rau3-39" style="edgeStyle=orthogonalEdgeStyle;rounded=0;orthogonalLoop=1;jettySize=auto;html=1;exitX=0;exitY=0.75;exitDx=0;exitDy=0;entryX=1;entryY=0.75;entryDx=0;entryDy=0;" edge="1" parent="1" source="TA6JC56tNwYO1op2Rau3-18" target="TA6JC56tNwYO1op2Rau3-11">
          <mxGeometry relative="1" as="geometry" />
        </mxCell>
        <mxCell id="TA6JC56tNwYO1op2Rau3-40" value="Consult Client Current Task" style="edgeLabel;html=1;align=center;verticalAlign=middle;resizable=0;points=[];fontSize=16;labelBackgroundColor=none;" vertex="1" connectable="0" parent="TA6JC56tNwYO1op2Rau3-39">
          <mxGeometry x="0.0538" y="1" relative="1" as="geometry">
            <mxPoint y="-11" as="offset" />
          </mxGeometry>
        </mxCell>
        <mxCell id="TA6JC56tNwYO1op2Rau3-18" value="Session Manager" style="html=1;dropTarget=0;whiteSpace=wrap;fillColor=#fff2cc;strokeColor=#d6b656;fontSize=18;" vertex="1" parent="1">
          <mxGeometry x="530" y="360" width="180" height="80" as="geometry" />
        </mxCell>
        <mxCell id="TA6JC56tNwYO1op2Rau3-19" value="" style="shape=module;jettyWidth=8;jettyHeight=4;" vertex="1" parent="TA6JC56tNwYO1op2Rau3-18">
          <mxGeometry x="1" width="20" height="20" relative="1" as="geometry">
            <mxPoint x="-27" y="7" as="offset" />
          </mxGeometry>
        </mxCell>
        <mxCell id="TA6JC56tNwYO1op2Rau3-26" value="" style="group" vertex="1" connectable="0" parent="1">
          <mxGeometry x="820" y="350" width="210" height="100" as="geometry" />
        </mxCell>
        <mxCell id="TA6JC56tNwYO1op2Rau3-22" value="Profile Manager" style="html=1;dropTarget=0;whiteSpace=wrap;fillColor=#fff2cc;strokeColor=#d6b656;fontSize=18;verticalAlign=top;" vertex="1" parent="TA6JC56tNwYO1op2Rau3-26">
          <mxGeometry width="210" height="100" as="geometry" />
        </mxCell>
        <mxCell id="TA6JC56tNwYO1op2Rau3-23" value="" style="shape=module;jettyWidth=8;jettyHeight=4;" vertex="1" parent="TA6JC56tNwYO1op2Rau3-22">
          <mxGeometry x="1" width="20" height="20" relative="1" as="geometry">
            <mxPoint x="-27" y="7" as="offset" />
          </mxGeometry>
        </mxCell>
        <mxCell id="TA6JC56tNwYO1op2Rau3-24" value="+ Nickname" style="text;strokeColor=none;fillColor=none;align=left;verticalAlign=top;spacingLeft=4;spacingRight=4;overflow=hidden;rotatable=0;points=[[0,0.5],[1,0.5]];portConstraint=eastwest;whiteSpace=wrap;html=1;fontSize=16;" vertex="1" parent="TA6JC56tNwYO1op2Rau3-26">
          <mxGeometry x="5" y="32" width="200" height="26" as="geometry" />
        </mxCell>
        <mxCell id="TA6JC56tNwYO1op2Rau3-25" value="+ Anchor Color" style="text;strokeColor=none;fillColor=none;align=left;verticalAlign=top;spacingLeft=4;spacingRight=4;overflow=hidden;rotatable=0;points=[[0,0.5],[1,0.5]];portConstraint=eastwest;whiteSpace=wrap;html=1;fontSize=16;" vertex="1" parent="TA6JC56tNwYO1op2Rau3-26">
          <mxGeometry x="5" y="58" width="200" height="26" as="geometry" />
        </mxCell>
      </root>
    </mxGraphModel>
  </diagram>
</mxfile>
